<svg xmlns="http://www.w3.org/2000/svg" viewBox="0 0 600 400" width="600" height="400"><defs><linearGradient id="gImp" x1="0" x2="1" y1="0" y2="1"><stop offset="0" stop-color="#0f766e"/><stop offset="1" stop-color="#115e59"/></linearGradient><linearGradient id="bImp" x1="0" x2="0" y1="0" y2="1"><stop offset="0" stop-color="#ccfbf1"/><stop offset="1" stop-color="#e6fffa"/></linearGradient></defs><rect width="600" height="400" fill="url(#bImp)"/><g transform="translate(260, 80)"><path d="M40 0L40 0C60 0 80 20 80 40 80 70 60 80 40 80S0 70 0 40C0 20 20 0 40 0z" fill="url(#gImp)"/><rect x="35" y="80" width="10" height="20" fill="url(#gImp)"/><rect x="30" y="100" width="20" height="20" fill="url(#gImp)"/><rect x="25" y="120" width="30" height="20" fill="url(#gImp)"/><path d="M15 140c5 10 15 15 25 15s20-5 25-15v60c0 15-10 25-25 25s-25-10-25-25z" fill="#f4d4b0"/></g><text x="300" y="350" text-anchor="middle" font-family="sans-serif" font-size="22" font-weight="700" fill="#0f766e">Dental Implants</text></svg>
