<svg xmlns="http://www.w3.org/2000/svg" viewBox="0 0 64 64" width="64" height="64">
  <defs>
    <linearGradient id="fGrad" x1="0" x2="1" y1="0" y2="1">
      <stop offset="0" stop-color="#0f766e"/>
      <stop offset="1" stop-color="#14b8a6"/>
    </linearGradient>
  </defs>
  <rect width="64" height="64" rx="12" fill="url(#fGrad)"/>
  <path d="M32 12c-10 0-18 8-18 18 0 6 2 10 4 14 2 3 3 5 4 8l1 5c1 5 5 9 9 9 2 0 3-1 4-3l2-5c.5-1 1.5-1 2 0l2 5c1 2 2 3 4 3 4 0 8-4 9-9l1-5c1-3 2-5 4-8 2-4 4-8 4-14 0-10-8-18-18-18-3 0-5 1-7 2s-3 2-7 2z" fill="#fff"/>
  <path d="M22 28c2-2 5-3 8-3M42 28c-2-2-5-3-8-3" stroke="#c8874a" stroke-width="2.5" fill="none" stroke-linecap="round"/>
</svg>
